<svg width="24" height="24" viewBox="0 0 24 24" fill="none" xmlns="http://www.w3.org/2000/svg">
<path d="M22 12C21.997 12.1263 21.9733 12.2513 21.93 12.37C21.9069 12.4123 21.8801 12.4524 21.85 12.49C21.8238 12.5454 21.7938 12.5989 21.76 12.65L15.76 19.65C15.5278 19.9215 15.1683 20.0485 14.8171 19.9832C14.4658 19.9178 14.1761 19.6701 14.0571 19.3332C13.938 18.9963 14.0078 18.6215 14.24 18.35L18.83 13H3C2.44772 13 2 12.5523 2 12C2 11.4477 2.44772 11 3 11H18.83L14.24 5.65001C14.0078 5.37849 13.938 5.0037 14.0571 4.66683C14.1761 4.32996 14.4658 4.08218 14.8171 4.01683C15.1683 3.95148 15.5278 4.07849 15.76 4.35001L21.76 11.35C21.7938 11.4011 21.8238 11.4546 21.85 11.51C21.8801 11.5476 21.9069 11.5878 21.93 11.63C21.9733 11.7487 21.997 11.8737 22 12Z" fill="#52BBFF"/>
</svg>
