<svg width="44" height="45" viewBox="0 0 44 45" fill="none" xmlns="http://www.w3.org/2000/svg">
<rect y="0.0500488" width="44" height="44.024" rx="22" fill="#0F364E" fill-opacity="0.6"/>
<path d="M31.7099 30.3603C31.8993 30.5482 32.0057 30.8041 32.0057 31.071C32.0057 31.3379 31.8993 31.5937 31.7099 31.7817C31.5222 31.9712 31.2666 32.0778 30.9999 32.0778C30.7333 32.0778 30.4777 31.9712 30.2899 31.7817L21.9999 23.4734L13.7099 31.7817C13.5222 31.9712 13.2666 32.0778 12.9999 32.0778C12.7333 32.0778 12.4777 31.9712 12.2899 31.7817C12.1006 31.5937 11.9941 31.3379 11.9941 31.071C11.9941 30.8041 12.1006 30.5482 12.2899 30.3603L20.5899 22.062L12.2899 13.7637C12.0363 13.5098 11.9372 13.1397 12.0301 12.7928C12.1229 12.446 12.3936 12.1751 12.7401 12.0821C13.0866 11.9892 13.4563 12.0883 13.7099 12.3423L21.9999 20.6506L30.2899 12.3423C30.6821 11.9497 31.3178 11.9497 31.7099 12.3423C32.1021 12.7348 32.1021 13.3712 31.7099 13.7637L23.4099 22.062L31.7099 30.3603Z" fill="white"/>
</svg>
