<svg width="64" height="64" viewBox="0 0 64 64" fill="none" xmlns="http://www.w3.org/2000/svg">
<rect width="64" height="64" rx="32" fill="#0D5787" fill-opacity="0.4"/>
<path fill-rule="evenodd" clip-rule="evenodd" d="M22.6667 18.6667H41.3334C43.5426 18.6667 45.3334 20.4575 45.3334 22.6667V31.7334C45.3217 36.4624 42.5338 40.7436 38.2134 42.6667L32.5467 45.1734C32.1991 45.3296 31.8011 45.3296 31.4534 45.1734L25.7867 42.6667C21.4664 40.7436 18.6784 36.4624 18.6667 31.7334V22.6667C18.6667 20.4575 20.4576 18.6667 22.6667 18.6667ZM36.0934 32.5867L38.2934 30.3334H38.2667C38.6107 29.9742 38.7262 29.4536 38.5664 28.9828C38.4067 28.5119 37.9982 28.169 37.5067 28.0934L34.5334 27.64L33.2001 24.7734C32.9835 24.2979 32.5092 23.9928 31.9867 23.9928C31.4643 23.9928 30.99 24.2979 30.7734 24.7734L29.4401 27.64L26.4667 28.0934C25.9753 28.169 25.5668 28.5119 25.4071 28.9828C25.2473 29.4536 25.3628 29.9742 25.7067 30.3334L27.8667 32.64L27.3467 35.84C27.2862 36.3356 27.5075 36.8234 27.9203 37.1042C28.333 37.385 28.8681 37.4117 29.3067 37.1734L31.9734 35.7067L34.6401 37.1734C34.8366 37.2795 35.0567 37.3345 35.2801 37.3334C35.674 37.3384 36.0499 37.1691 36.3072 36.8707C36.5644 36.5724 36.6765 36.1755 36.6134 35.7867L36.0934 32.5867Z" fill="white"/>
<path d="M32.4402 29.4133L32.0002 28.4667L31.5602 29.4133C31.3711 29.8125 30.9966 30.0921 30.5602 30.16L29.4402 30.3333L30.2935 31.2133C30.5887 31.5167 30.7224 31.9423 30.6535 32.36L30.4669 33.5067L31.3602 33.0133C31.7727 32.7752 32.281 32.7752 32.6935 33.0133L33.5869 33.5067L33.3335 32.36C33.2647 31.9423 33.3983 31.5167 33.6935 31.2133L34.5469 30.3333L33.4269 30.16C32.9954 30.088 32.6267 29.809 32.4402 29.4133Z" fill="white"/>
</svg>
