<svg width="125" height="141" viewBox="0 0 125 141" fill="none" xmlns="http://www.w3.org/2000/svg">
<path d="M102.201 101.581L88.9519 95.5679C74.6595 89.0817 57.7755 93.6057 48.641 106.369L40.1735 118.201L46.1861 104.952C52.6723 90.6595 48.1483 73.7754 35.3849 64.641L23.5533 56.1734L36.8022 62.1861C51.0946 68.6723 67.9786 64.1482 77.1131 51.3848L85.5806 39.5533L79.5679 52.8021C73.0817 67.0945 77.6058 83.9786 90.3692 93.113L102.201 101.581Z" fill="#1C98E8"/>
<path d="M54.472 9.49057L51.7417 12.8133C48.7964 16.3978 48.7964 21.5645 51.7417 25.1489L54.472 28.4717L51.1493 25.7414C47.5648 22.7961 42.3981 22.7961 38.8136 25.7414L35.4909 28.4717L38.2212 25.149C41.1665 21.5645 41.1665 16.3978 38.2212 12.8133L35.4909 9.49057L38.8136 12.2208C42.3981 15.1662 47.5648 15.1662 51.1493 12.2208L54.472 9.49057Z" fill="#1C98E8"/>
</svg>
