<svg width="22" height="19" viewBox="0 0 22 19" fill="none" xmlns="http://www.w3.org/2000/svg">
<path d="M19.4653 0.00176981C19.1936 0.0144848 18.9377 0.0939534 18.7103 0.182959H18.7071C18.4765 0.275142 17.3804 0.73924 15.7156 1.44174C14.0508 2.14743 11.8901 3.06291 9.74518 3.97203C5.46164 5.7871 1.25076 7.57356 1.25076 7.57356L1.3013 7.55449C1.3013 7.55449 1.01068 7.64985 0.707421 7.85965C0.552632 7.96137 0.382048 8.10123 0.233578 8.32056C0.0851076 8.5399 -0.0349329 8.87685 0.0092928 9.22333C0.0819489 9.8114 0.461023 10.1642 0.732692 10.3581C1.00752 10.5552 1.26971 10.6474 1.26971 10.6474H1.27603L5.22472 11.9857C5.40162 12.5578 6.42828 15.9527 6.67468 16.7347C6.81999 17.202 6.96214 17.4944 7.13904 17.717C7.22433 17.8314 7.32542 17.9268 7.44546 18.003C7.49285 18.0317 7.54339 18.0539 7.59393 18.073C7.60973 18.0825 7.62552 18.0857 7.64447 18.0889L7.60341 18.0793C7.61604 18.0825 7.62552 18.0921 7.635 18.0952C7.66659 18.1048 7.6887 18.1079 7.72977 18.1143C8.35524 18.305 8.85751 17.914 8.85751 17.914L8.88594 17.8918L11.2172 15.7557L15.1249 18.7723L15.2133 18.8104C16.0283 19.1696 16.8528 18.9694 17.2887 18.6165C17.7278 18.2605 17.8984 17.806 17.8984 17.806L17.9269 17.7329L20.9468 2.1665C21.0321 1.78187 21.0542 1.42267 20.9594 1.07301C20.8647 0.723347 20.6214 0.395935 20.3277 0.221104C20.0307 0.0430934 19.7369 -0.0109452 19.4653 0.00176981ZM19.3831 1.67061C19.38 1.72147 19.3895 1.71512 19.3673 1.81366V1.82319L16.3758 17.2274C16.3632 17.2497 16.3411 17.2974 16.281 17.345C16.2179 17.3959 16.1673 17.4277 15.9051 17.3228L11.1256 13.6354L8.23836 16.2833L8.84488 12.3862C8.84488 12.3862 16.3316 5.36433 16.6538 5.06234C16.976 4.76036 16.8686 4.69679 16.8686 4.69679C16.8907 4.32805 16.3821 4.58871 16.3821 4.58871L6.53568 10.7269L6.53252 10.711L1.81305 9.11207V9.1089C1.80989 9.1089 1.80358 9.10572 1.80042 9.10572C1.80358 9.10572 1.82569 9.09618 1.82569 9.09618L1.85096 9.08347L1.87623 9.07393C1.87623 9.07393 6.09027 7.28747 10.3738 5.4724C12.5187 4.56328 14.6795 3.6478 16.3411 2.94212C18.0027 2.23961 19.2315 1.72465 19.301 1.69604C19.3673 1.67061 19.3357 1.67061 19.3831 1.67061Z" fill="white"/>
</svg>
