<svg width="65" height="64" viewBox="0 0 65 64" fill="none" xmlns="http://www.w3.org/2000/svg">
<rect x="0.5" width="64" height="64" rx="32" fill="#0D5787" fill-opacity="0.4"/>
<circle cx="32.4999" cy="32" r="6.66667" fill="white"/>
<path fill-rule="evenodd" clip-rule="evenodd" d="M32.5 21.6667C37.5267 21.6667 42.2067 25.1067 45.6733 31.3467C45.9115 31.7592 45.9115 32.2675 45.6733 32.68C42.2067 38.92 37.5267 42.36 32.5 42.36C27.4733 42.36 22.8067 38.92 19.34 32.68C19.1018 32.2675 19.1018 31.7592 19.34 31.3467C22.8067 25.1067 27.4733 21.6667 32.5 21.6667ZM23.1667 32C23.1667 37.1547 27.3454 41.3334 32.5 41.3334C37.6547 41.3334 41.8333 37.1547 41.8333 32C41.8333 26.8454 37.6547 22.6667 32.5 22.6667C27.3454 22.6667 23.1667 26.8454 23.1667 32Z" fill="white"/>
</svg>
