<svg width="65" height="64" viewBox="0 0 65 64" fill="none" xmlns="http://www.w3.org/2000/svg">
<rect x="0.5" width="64" height="64" rx="32" fill="#0D5787" fill-opacity="0.4"/>
<path d="M45.4467 43.0534L38.2467 35.8667C39.7094 34.0033 40.503 31.7022 40.5001 29.3334C40.5001 23.4423 35.7245 18.6667 29.8334 18.6667C23.9424 18.6667 19.1667 23.4423 19.1667 29.3334C19.1667 35.2244 23.9424 40 29.8334 40C32.2023 40.003 34.5034 39.2093 36.3667 37.7467L43.5534 44.9467C43.8038 45.1991 44.1446 45.3411 44.5001 45.3411C44.8556 45.3411 45.1964 45.1991 45.4467 44.9467C45.6992 44.6963 45.8411 44.3555 45.8411 44C45.8411 43.6445 45.6992 43.3037 45.4467 43.0534Z" fill="white"/>
</svg>
